<svg xmlns="http://www.w3.org/2000/svg" viewBox="0 0 2552.3 699"><defs><style>.cls-1{fill:#fff;}.cls-2{fill:none;stroke:#fff;stroke-miterlimit:10;stroke-width:3px;opacity:0.2;}</style></defs><title>Asset 1</title><g id="Layer_2" data-name="Layer 2"><g id="Layer_1-2" data-name="Layer 1"><path class="cls-1" d="M550.81,370.53H532.16L517,280.78h-.39l-15,89.75H483L462.42,232.21h21L493.31,320h.39l15.54-87.81h15.15l16.12,89.94h.39l9.52-89.94h21Z"/><path class="cls-1" d="M583.83,232.21h59.06v18.65H603.65v40.6h34.19v18.65H603.65v40.6h39.24v19.81H583.83Z"/><path class="cls-1" d="M691.84,232.21h28.95A40.59,40.59,0,0,1,737,235.13a30.64,30.64,0,0,1,11,7.77,29.1,29.1,0,0,1,6.12,11.17,46.54,46.54,0,0,1,1.85,13.11v5.05a44.1,44.1,0,0,1-.87,9.52,22.87,22.87,0,0,1-2.62,6.8,21.83,21.83,0,0,1-4.27,5.15,37.25,37.25,0,0,1-5.83,4.18,21.4,21.4,0,0,1,10.3,9.81q3.3,6.51,3.3,17.39v7.77q0,18.26-8.84,28t-28.27,9.71h-27Zm19.81,56.73h8.94q9.91,0,13.31-5t3.4-14.47q0-9.33-3.79-14t-13.7-4.66h-8.16Zm0,61.78h8.55q6,0,9.42-1.75a12.07,12.07,0,0,0,5.15-4.86,18.29,18.29,0,0,0,2.14-7.38q.39-4.27.39-9.32a62.39,62.39,0,0,0-.58-9.13,15,15,0,0,0-2.43-6.51,11.46,11.46,0,0,0-5.15-4,23.41,23.41,0,0,0-8.74-1.36h-8.74Z"/><path class="cls-1" d="M774.59,232.21h59.06v18.65H794.41v40.6H828.6v18.65H794.41v40.6h39.24v19.81H774.59Z"/><path class="cls-1" d="M846.47,232.21h19.81v118.5h39.24v19.81H846.47Z"/><path class="cls-1" d="M918.93,232.21h19.81V370.53H918.93Z"/><path class="cls-1" d="M958,232.21H1017v18.65H977.79v40.6H1012v18.65H977.79v40.6H1017v19.81H958Z"/><path class="cls-1" d="M1068.7,370.53h-17.48l-28.17-138.32h21l15.74,96.55h.39l15.93-96.55h21Z"/><path class="cls-1" d="M1108.92,232.21H1168v18.65h-39.24v40.6h34.19v18.65h-34.19v40.6H1168v19.81h-59.06Z"/><path class="cls-1" d="M1217.5,232.21h19.81V370.53H1217.5Z"/><path class="cls-1" d="M1255.77,232.21h19l29.92,83.34h.39V232.21h19.81V370.53h-18.65L1276,287.38h-.39v83.14h-19.81Z"/><path class="cls-1" d="M1377.77,264.85a35.33,35.33,0,0,1,2.91-14.76,30.79,30.79,0,0,1,7.67-10.59,33.09,33.09,0,0,1,10.68-6.31,34.46,34.46,0,0,1,23.89,0,33.15,33.15,0,0,1,10.68,6.31,30.83,30.83,0,0,1,7.67,10.59,35.33,35.33,0,0,1,2.91,14.76v7h-19.81v-7q0-7.18-4-10.59a14.76,14.76,0,0,0-18.84,0q-4,3.4-4,10.59v73q0,7.19,4,10.59a14.76,14.76,0,0,0,18.84,0q4-3.4,4-10.59v-26h-15.74V294.38h35.55v43.51a35.15,35.15,0,0,1-2.91,14.86,31,31,0,0,1-7.67,10.49,33.06,33.06,0,0,1-10.68,6.31,34.47,34.47,0,0,1-23.89,0,33,33,0,0,1-10.68-6.31,31,31,0,0,1-7.67-10.49,35.15,35.15,0,0,1-2.91-14.86Z"/><path class="cls-1" d="M1460.52,264.85a35.33,35.33,0,0,1,2.91-14.76,30.79,30.79,0,0,1,7.67-10.59,33.09,33.09,0,0,1,10.68-6.31,34.46,34.46,0,0,1,23.89,0,33.15,33.15,0,0,1,10.68,6.31,30.83,30.83,0,0,1,7.67,10.59,35.33,35.33,0,0,1,2.91,14.76v73a35.15,35.15,0,0,1-2.91,14.86,31,31,0,0,1-7.67,10.49,33.06,33.06,0,0,1-10.68,6.31,34.47,34.47,0,0,1-23.89,0,33,33,0,0,1-10.68-6.31,31,31,0,0,1-7.67-10.49,35.15,35.15,0,0,1-2.91-14.86Zm19.81,73q0,7.19,4,10.59a14.76,14.76,0,0,0,18.84,0q4-3.4,4-10.59v-73q0-7.18-4-10.59a14.76,14.76,0,0,0-18.84,0q-4,3.4-4,10.59Z"/><path class="cls-1" d="M1543.28,264.85a35.33,35.33,0,0,1,2.91-14.76,30.79,30.79,0,0,1,7.67-10.59,33.09,33.09,0,0,1,10.68-6.31,34.46,34.46,0,0,1,23.89,0,33.15,33.15,0,0,1,10.68,6.31,30.83,30.83,0,0,1,7.67,10.59,35.33,35.33,0,0,1,2.91,14.76v73a35.15,35.15,0,0,1-2.91,14.86,31,31,0,0,1-7.67,10.49,33.06,33.06,0,0,1-10.68,6.31,34.47,34.47,0,0,1-23.89,0,33,33,0,0,1-10.68-6.31,31,31,0,0,1-7.67-10.49,35.15,35.15,0,0,1-2.91-14.86Zm19.81,73q0,7.19,4,10.59a14.76,14.76,0,0,0,18.84,0q4-3.4,4-10.59v-73q0-7.18-4-10.59a14.76,14.76,0,0,0-18.84,0q-4,3.4-4,10.59Z"/><path class="cls-1" d="M1627.2,232.21h29.33q16.9,0,25.84,9.42T1691.3,268v64.69q0,19.43-9.42,28.65t-27.1,9.23H1627.2ZM1647,351.88h9.13q8.35,0,11.85-4.18t3.5-13.11V268q0-8.16-3.3-12.63t-12-4.47H1647Z"/><path class="cls-1" d="M1746.08,232.21h29.33q16.9,0,25.84,9.42t8.94,26.32v64.69q0,19.43-9.42,28.65t-27.1,9.23h-27.59Zm19.82,119.67H1775q8.35,0,11.85-4.18t3.5-13.11V268q0-8.16-3.3-12.63t-12-4.47h-9.13Z"/><path class="cls-1" d="M1828.84,232.21h59.06v18.65h-39.24v40.6h34.19v18.65h-34.19v40.6h39.24v19.81h-59.06Z"/><path class="cls-1" d="M1964.82,272H1945v-4.47a21.16,21.16,0,0,0-3.21-11.75q-3.21-5-10.78-5a13,13,0,0,0-6.7,1.55,11.49,11.49,0,0,0-4.08,4,16.66,16.66,0,0,0-2,5.63,37.41,37.41,0,0,0-.58,6.7,68.61,68.61,0,0,0,.29,6.9,12.23,12.23,0,0,0,1.46,4.86,11.13,11.13,0,0,0,3.4,3.59,31,31,0,0,0,6.12,3.11l15.15,6a37.67,37.67,0,0,1,10.68,5.93,24.11,24.11,0,0,1,6.31,8,33.79,33.79,0,0,1,3,10.49,105.22,105.22,0,0,1,.78,13.5,71.16,71.16,0,0,1-1.75,16.22,34.19,34.19,0,0,1-5.73,12.82,27.52,27.52,0,0,1-10.59,8.45q-6.61,3.11-16.12,3.11a35.3,35.3,0,0,1-13.4-2.53,31.92,31.92,0,0,1-17.78-17.29,32.24,32.24,0,0,1-2.62-13v-7.38h19.81v6.22a16.18,16.18,0,0,0,3.21,9.81q3.21,4.37,10.78,4.37a17.38,17.38,0,0,0,7.87-1.46,10,10,0,0,0,4.27-4.08,16.82,16.82,0,0,0,1.85-6.51q.39-3.88.39-8.55a84.11,84.11,0,0,0-.39-8.94,14.22,14.22,0,0,0-1.65-5.63,10.1,10.1,0,0,0-3.5-3.5,46.86,46.86,0,0,0-5.92-2.91l-14.18-5.83q-12.82-5.25-17.19-13.89t-4.37-21.66a50.19,50.19,0,0,1,2.14-14.76,34.39,34.39,0,0,1,6.31-12,30.13,30.13,0,0,1,10.59-8.06,34.86,34.86,0,0,1,15-3,32.9,32.9,0,0,1,13.5,2.72,33.62,33.62,0,0,1,10.49,7.19,32,32,0,0,1,6.7,10,29,29,0,0,1,2.33,11.36Z"/><path class="cls-1" d="M1980.17,232.21H2000V370.53h-19.82Z"/><path class="cls-1" d="M2018,264.85a35.33,35.33,0,0,1,2.91-14.76,30.79,30.79,0,0,1,7.67-10.59,33.09,33.09,0,0,1,10.68-6.31,34.46,34.46,0,0,1,23.89,0,33.15,33.15,0,0,1,10.68,6.31,30.83,30.83,0,0,1,7.67,10.59,35.33,35.33,0,0,1,2.91,14.76v7h-19.81v-7q0-7.18-4-10.59a14.76,14.76,0,0,0-18.84,0q-4,3.4-4,10.59v73q0,7.19,4,10.59a14.76,14.76,0,0,0,18.84,0q4-3.4,4-10.59v-26h-15.74V294.38h35.55v43.51a35.15,35.15,0,0,1-2.91,14.86,31,31,0,0,1-7.67,10.49,33.06,33.06,0,0,1-10.68,6.31,34.47,34.47,0,0,1-23.89,0,33,33,0,0,1-10.68-6.31,31,31,0,0,1-7.67-10.49,35.15,35.15,0,0,1-2.91-14.86Z"/><path class="cls-1" d="M2101.19,232.21h19l29.92,83.34h.39V232.21h19.81V370.53H2151.7l-30.3-83.14H2121v83.14h-19.81Z"/><line class="cls-2" x1="461.31" x2="461.31" y2="413.15"/><line class="cls-2" x1="484.31" y1="285.85" x2="484.31" y2="699"/><line class="cls-2" x1="2168.22" y1="122.92" x2="2168.22" y2="536.08"/><line class="cls-2" x1="306.03" y1="230.81" x2="2552.3" y2="230.81"/><line class="cls-2" y1="370.53" x2="2246.27" y2="370.53"/></g></g></svg>